<svg width="26" height="24" viewBox="0 0 26 24" fill="none" xmlns="http://www.w3.org/2000/svg">
<path d="M12.189 5.37599V5.40699C12.1894 6.01329 12.0852 6.61512 11.881 7.18599L11.893 7.14899C11.6945 7.70526 11.3571 8.20161 10.913 8.59099L10.909 8.59399C10.488 8.97299 9.928 9.20399 9.314 9.20399H9.266H9.268C8.45793 9.19934 7.68215 8.87646 7.108 8.30499C6.48076 7.72923 5.99277 7.01828 5.681 6.22599L5.668 6.18799C5.36582 5.43921 5.20673 4.6404 5.199 3.83299V3.79799C5.199 3.17399 5.308 2.57499 5.507 2.01899L5.495 2.05599C5.69354 1.49971 6.03087 1.00336 6.475 0.613986L6.479 0.610986C6.93091 0.204392 7.52128 -0.0138648 8.129 0.00098567H8.126C8.93631 0.00444909 9.71252 0.327511 10.286 0.899986C10.907 1.4757 11.3909 2.18342 11.702 2.97099L11.715 3.00899C12.004 3.70899 12.175 4.52199 12.184 5.37299V5.37599H12.189ZM6.844 12.924L6.845 13.008C6.8462 13.76 6.61383 14.4938 6.18 15.108L6.188 15.096C5.99018 15.381 5.72633 15.6139 5.41898 15.7748C5.11163 15.9357 4.76992 16.0198 4.423 16.02L4.324 16.018H4.329C3.50935 16.009 2.72152 15.6994 2.115 15.148L2.118 15.151C1.47277 14.5983 0.950895 13.9162 0.586197 13.1489C0.2215 12.3817 0.0221252 11.5463 0.001 10.697V10.689L0 10.607C0 9.82199 0.246 9.09399 0.665 8.49699L0.657 8.50899C0.862823 8.2081 1.14207 7.96475 1.46827 7.802C1.79447 7.63925 2.15683 7.56249 2.521 7.57899H2.516C3.33565 7.588 4.12348 7.89758 4.73 8.44899L4.727 8.44599C5.37323 9.00191 5.89556 9.6873 6.26023 10.4578C6.6249 11.2283 6.82378 12.0668 6.844 12.919V12.926V12.924ZM13.005 12.502C14.465 12.5817 15.8632 13.1171 17.003 14.033L16.989 14.022C18.3842 15.0128 19.5863 16.2505 20.536 17.674L20.568 17.725C21.424 18.875 21.9243 20.2507 22.007 21.682L22.008 21.702L22.01 21.789C22.01 22.193 21.911 22.575 21.736 22.91L21.742 22.897C21.5741 23.2042 21.3119 23.4492 20.994 23.596L20.984 23.6C20.693 23.739 20.354 23.848 20 23.909L19.976 23.912C19.6069 23.9702 19.2337 23.999 18.86 23.998H18.785H18.789C17.7586 23.9298 16.7478 23.6842 15.801 23.272L15.859 23.295C14.9649 22.9051 14.0116 22.6681 13.039 22.594L13.008 22.592C11.905 22.674 10.883 22.922 9.933 23.311L10 23.287C9.00938 23.6848 7.96074 23.9192 6.895 23.981L6.867 23.982C4.95633 23.9833 4.001 23.2236 4.001 21.703C4.0443 20.6375 4.35075 19.5992 4.893 18.681L4.876 18.711C5.46104 17.6107 6.19606 16.597 7.06 15.699L7.056 15.703C7.90043 14.821 8.86612 14.0638 9.924 13.454L9.986 13.421C10.8895 12.8572 11.9248 12.5397 12.989 12.5H13.001L13.005 12.502ZM16.74 9.20499H16.694C16.1043 9.20562 15.5353 8.98756 15.097 8.59299L15.099 8.59499C14.6584 8.21138 14.3225 7.72205 14.123 7.17299L14.115 7.14899C13.9166 6.58971 13.8161 6.00041 13.818 5.40699V5.37399V5.37599C13.827 4.52099 13.998 3.70899 14.303 2.96499L14.287 3.00899C14.5968 2.20812 15.0844 1.48803 15.713 0.902986L15.717 0.899986C16.2906 0.328487 17.0663 0.00587813 17.876 0.00198567H17.923C18.537 0.00198567 19.097 0.233986 19.52 0.613986L19.518 0.611986C19.956 0.994986 20.294 1.48099 20.494 2.03399L20.502 2.05799C20.693 2.57999 20.803 3.18299 20.803 3.81099V3.83099V3.82999C20.7943 4.65441 20.6298 5.46974 20.318 6.23299L20.334 6.18899C20.0239 6.99422 19.5325 7.71723 18.898 8.30199L18.894 8.30599C18.3195 8.87602 17.5443 9.19777 16.735 9.20199H16.734L16.74 9.20499ZM23.49 7.58099L23.582 7.57899C24.313 7.57899 24.958 7.94499 25.344 8.50399L25.349 8.51099C25.7786 9.12646 26.008 9.85941 26.006 10.61L26.005 10.696V10.692C25.9853 11.5408 25.7874 12.3759 25.424 13.1432C25.0607 13.9105 24.5401 14.5929 23.896 15.146L23.888 15.153C23.2824 15.7023 22.4966 16.0108 21.679 16.02H21.677C21.3159 16.0362 20.9565 15.9608 20.6324 15.8009C20.3082 15.6409 20.0298 15.4015 19.823 15.105L19.818 15.098C19.3713 14.4619 19.1413 13.699 19.162 12.922V12.926C19.1811 12.0742 19.3787 11.236 19.742 10.4653C20.1053 9.69467 20.6262 9.0088 21.271 8.45199L21.279 8.44499C21.8839 7.89737 22.6681 7.58973 23.484 7.57999H23.486L23.49 7.58099Z" fill="white"/>
</svg>
