<svg width="36" height="35" viewBox="0 0 36 35" fill="none" xmlns="http://www.w3.org/2000/svg">
<mask id="path-1-inside-1_1_23" fill="white">
<rect width="7.43094" height="15.693" rx="2" transform="matrix(0.981627 -0.190809 0.206647 0.978415 4.81873 18.8332)"/>
</mask>
<rect width="7.43094" height="15.693" rx="2" transform="matrix(0.981627 -0.190809 0.206647 0.978415 4.81873 18.8332)" stroke="white" stroke-width="6" mask="url(#path-1-inside-1_1_23)"/>
<mask id="path-2-inside-2_1_23" fill="white">
<rect y="9.5" width="14.4" height="11" rx="2"/>
</mask>
<rect y="9.5" width="14.4" height="11" rx="2" stroke="white" stroke-width="6" mask="url(#path-2-inside-2_1_23)"/>
<path d="M13.1347 10.4067L33.8204 2.44603C34.1479 2.31999 34.5 2.56173 34.5 2.91266V27.5319C34.5 27.8866 34.141 28.1285 33.8123 27.9954L13.1265 19.6157C12.9378 19.5393 12.8143 19.356 12.8143 19.1523V10.8733C12.8143 10.6665 12.9416 10.481 13.1347 10.4067Z" stroke="white" stroke-width="3"/>
</svg>
