<svg width="44" height="44" viewBox="0 0 44 44" fill="none" xmlns="http://www.w3.org/2000/svg">
<path d="M28.97 26.2919V24.7888C28.7493 24.8025 28.5287 24.8198 28.3085 24.8407C27.7772 24.8894 27.249 24.9643 26.7259 25.065C27.1946 25.4822 27.6328 25.9209 28.039 26.3774M28.97 26.2919C29.3953 26.2634 29.8215 26.2494 30.2479 26.25L30.25 26.25C30.3286 26.25 30.4067 26.2505 30.4843 26.2513L30.47 27.5L30.47 27.5H30.47L30.4659 27.5028L29.429 28.1928C29.2826 27.9687 29.1296 27.7474 28.97 27.5294M28.97 26.2919C28.7967 26.3035 28.6235 26.3176 28.4505 26.334L28.4453 26.3345C28.3096 26.3469 28.1742 26.3612 28.039 26.3774M28.97 26.2919V27.5V27.5028V27.5294M28.97 27.5294V28.9858L29.6351 28.9933C30.8302 31.0337 31.475 33.3546 31.4997 35.7277L30.25 35.75M28.97 27.5294C28.791 27.2849 28.6039 27.0444 28.4087 26.8084M30.25 35.75H31.4999C31.5 35.754 31.5 35.7579 31.5 35.7619L31.5098 37H30.1445C30.2219 36.5894 30.2575 36.1706 30.25 35.75ZM30.25 35.75C30.25 32.9725 29.2132 30.1345 27.2525 27.764M27.2525 27.764C26.9495 27.3974 26.6238 27.0415 26.2763 26.6986C26.8566 26.5558 27.4453 26.4485 28.039 26.3774M27.2525 27.764L28.4083 26.8079M27.2525 27.764L28.4087 26.8084M28.039 26.3774C28.1652 26.5192 28.2884 26.6628 28.4083 26.8079M28.4083 26.8079L28.4087 26.8084M28.4083 26.8079L28.4087 26.8084M31.6656 37C31.7272 36.5908 31.7558 36.1761 31.7503 35.7599C31.7502 35.7522 31.7501 35.7446 31.75 35.7369C31.7476 33.4259 31.1135 31.1038 29.9188 28.9966L30.4529 29.0027C30.7691 29.0063 31.0738 29.0183 31.3677 29.0382C32.4192 31.1122 32.9815 33.4087 33 35.75H39.75H41.25V34.25H40.9642C40.6709 33.3132 40.1187 32.1253 39.16 31.009M31.6656 37L31.7187 26.6689C31.9258 26.9801 32.1219 27.2974 32.3067 27.6204C35.7744 28.0401 37.8741 29.5084 39.16 31.009M31.6656 37H33H41.25C41.9365 37 42.1748 36.8296 42.2522 36.7522C42.3296 36.6748 42.5 36.4365 42.5 35.75C42.5 34.7339 41.9411 32.33 40.1111 30.1949C40.111 30.1948 40.1108 30.1946 40.1106 30.1944L39.16 31.009M31.6656 37L40.1098 30.1934L39.16 31.009M32.3001 24.8516C41.5973 25.8035 44 33.1795 44 35.75C44 37.5843 43.0842 38.5 41.25 38.5H31.2813C31.4307 38.0933 31.5452 37.6751 31.6237 37.25H33H41.25H42.75V35.75C42.75 34.6764 42.1705 32.2122 40.298 30.0317C38.6094 28.0618 35.8219 26.2673 31.2925 26.0284L30.4799 24.8076C30.8581 24.8523 31.2404 24.875 31.625 24.875C31.8509 24.875 32.0761 24.8672 32.3001 24.8516Z" stroke="#E8E8E8" stroke-width="3"/>
</svg>
