<svg width="365" height="72" viewBox="0 0 365 72" fill="none" xmlns="http://www.w3.org/2000/svg">
<path d="M114.64 50.22C114.6 51.3 114.18 52.22 113.38 52.98C112.58 53.74 111.64 54.1 110.56 54.06C109.48 54.02 108.56 53.6 107.8 52.8C107.04 52 106.68 51.06 106.72 49.98C106.76 49.3 106.82 48.12 106.9 46.44L107.02 42.96C107.06 41.96 107.06 40.72 107.02 39.24C106.98 37.72 106.9 36.48 106.78 35.52C106.74 35.36 106.72 35.2 106.72 35.04C106.6 34.2 106.44 33.46 106.24 32.82C106 32.06 105.52 31.44 104.8 30.96C104.08 30.44 103.18 30.14 102.1 30.06C100.98 29.94 99.94 30.08 98.98 30.48C98.06 30.84 97.38 31.36 96.94 32.04C96.9 32.16 96.84 32.38 96.76 32.7V32.94C96.84 40.22 96.88 45.84 96.88 49.8C96.88 50.96 96.46 51.96 95.62 52.8C94.82 53.6 93.84 54 92.68 54C91.52 54 90.52 53.6 89.68 52.8C88.88 51.96 88.48 50.96 88.48 49.8C88.48 46 88.42 38.24 88.3 26.52C88.3 25.36 88.7 24.38 89.5 23.58C90.3 22.74 91.28 22.3 92.44 22.26C93.56 22.26 94.54 22.64 95.38 23.4C97.7 22.32 100.16 21.9 102.76 22.14C105.84 22.42 108.44 23.52 110.56 25.44C112 24.2 113.64 23.32 115.48 22.8C117.32 22.28 119.14 22.1 120.94 22.26C123.42 22.5 125.68 23.32 127.72 24.72C129.76 26.12 131.18 28.06 131.98 30.54C132.42 31.9 132.72 33.72 132.88 36C133.08 38.24 133.16 40 133.12 41.28C133.12 42.52 133.06 44.3 132.94 46.62C132.86 48.94 132.82 50.12 132.82 50.16C132.78 51.24 132.36 52.16 131.56 52.92C130.76 53.68 129.82 54.04 128.74 54C127.66 53.96 126.74 53.54 125.98 52.74C125.22 51.94 124.86 51 124.9 49.92C124.9 49.44 124.94 48.14 125.02 46.02C125.14 43.86 125.2 42.26 125.2 41.22C125.24 40.18 125.2 38.78 125.08 37.02C124.96 35.26 124.74 33.9 124.42 32.94C124.18 32.18 123.7 31.56 122.98 31.08C122.26 30.56 121.36 30.26 120.28 30.18C119.16 30.06 118.12 30.2 117.16 30.6C116.24 30.96 115.56 31.48 115.12 32.16C115.08 32.28 115.02 32.5 114.94 32.82C114.94 32.94 114.94 33.06 114.94 33.18L114.82 33.66C114.82 33.78 114.82 33.9 114.82 34.02C114.78 34.38 114.74 34.7 114.7 34.98C114.82 36.22 114.9 37.72 114.94 39.48C114.98 41.24 114.98 42.66 114.94 43.74C114.9 44.82 114.84 46.08 114.76 47.52C114.68 48.92 114.64 49.82 114.64 50.22Z" fill="url(#paint0_linear_27_214)"/>
<g clip-path="url(#clip0_27_214)">
<circle cx="158.37" cy="39.929" r="21.5" transform="rotate(-23.9171 158.37 39.929)" fill="url(#paint1_linear_27_214)"/>
<g clip-path="url(#clip1_27_214)">
<path d="M155.739 35.532L155.749 35.5538C155.938 35.9792 156.052 36.4341 156.086 36.8984L156.083 36.8686C156.117 37.3209 156.035 37.7743 155.844 38.1859L155.842 38.1892C155.665 38.5863 155.344 38.9228 154.913 39.1139L154.879 39.1289L154.88 39.1283C154.31 39.3772 153.665 39.392 153.084 39.1696C152.465 38.9608 151.901 38.6136 151.435 38.1546L151.415 38.1319C150.969 37.7004 150.609 37.1893 150.352 36.6249L150.341 36.6003C150.147 36.1623 150.037 35.708 150.004 35.2557L150.007 35.2855C149.973 34.8332 150.055 34.3798 150.246 33.9682L150.248 33.9649C150.438 33.5388 150.785 33.2018 151.216 33.023L151.214 33.024C151.784 32.7742 152.429 32.7593 153.01 32.9826C153.625 33.1934 154.185 33.5395 154.648 33.9955L154.669 34.0181C155.09 34.4195 155.463 34.9369 155.735 35.5314L155.735 35.5335L155.739 35.532ZM154.337 42.494L154.364 42.5527C154.599 43.0801 154.664 43.6675 154.551 44.2337L154.553 44.2228C154.502 44.4844 154.39 44.73 154.224 44.9386C154.058 45.1473 153.845 45.3127 153.601 45.4208L153.531 45.4502L153.535 45.4487C152.957 45.6975 152.307 45.7255 151.71 45.5272L151.713 45.5284C151.088 45.3413 150.509 45.025 150.014 44.6C149.52 44.1749 149.12 43.6506 148.84 43.0611L148.838 43.0554L148.812 42.9982C148.567 42.4472 148.513 41.8596 148.622 41.3101L148.62 41.321C148.671 41.0458 148.791 40.788 148.969 40.5722C149.147 40.3565 149.378 40.1898 149.639 40.088L149.635 40.0895C150.213 39.8407 150.863 39.8128 151.46 40.011L151.457 40.0098C152.084 40.1989 152.664 40.5174 153.159 40.9447C153.655 41.372 154.056 41.8986 154.335 42.4905L154.338 42.4954L154.337 42.494ZM158.53 40.2799C159.58 39.8813 160.728 39.8219 161.813 40.1099L161.8 40.1066C163.087 40.3678 164.317 40.8623 165.426 41.5658L165.465 41.5917C166.424 42.1324 167.203 42.9423 167.707 43.9212L167.713 43.9349L167.742 43.9954C167.868 44.2789 167.917 44.5779 167.899 44.8675L167.899 44.8565C167.877 45.1244 167.769 45.3781 167.591 45.58L167.586 45.586C167.425 45.7741 167.221 45.9561 166.991 46.1092L166.975 46.1187C166.734 46.2745 166.481 46.4109 166.219 46.5265L166.166 46.5499L166.169 46.5486C165.424 46.8215 164.638 46.9638 163.845 46.9692L163.893 46.9673C163.144 46.972 162.401 47.1024 161.696 47.3531L161.673 47.3613C160.925 47.7623 160.284 48.2545 159.739 48.8233L159.778 48.7856C159.207 49.3732 158.544 49.8642 157.815 50.2393L157.795 50.2487C156.455 50.8444 155.548 50.6086 155.074 49.5412C154.773 48.7798 154.665 47.9557 154.76 47.1423L154.757 47.1687C154.825 46.2143 155.026 45.2739 155.352 44.3746L155.351 44.3787C155.669 43.4967 156.111 42.6646 156.664 41.9072L156.697 41.8648C157.156 41.1878 157.784 40.6426 158.518 40.2835L158.527 40.2797L158.53 40.2799ZM160.125 36.8029L160.093 36.8172C159.679 37.0013 159.212 37.0253 158.782 36.8848L158.784 36.8856C158.355 36.7535 157.967 36.5146 157.656 36.1913L157.643 36.1769C157.329 35.8461 157.075 35.4638 156.892 35.0466L156.882 35.0235L156.882 35.0249C156.623 34.4219 156.49 33.7987 156.472 33.1816L156.475 33.2174C156.443 32.5588 156.561 31.9016 156.82 31.2953L156.822 31.2919C157.047 30.7122 157.491 30.2443 158.058 29.9895L158.091 29.9749C158.522 29.7837 158.987 29.7722 159.402 29.9073L159.4 29.9065C159.827 30.039 160.216 30.2749 160.528 30.6008L160.541 30.6152C160.838 30.9221 161.103 31.3111 161.298 31.7519L161.304 31.766L161.304 31.7653C161.555 32.3466 161.693 32.9702 161.712 33.603L161.709 33.5671C161.742 34.2289 161.622 34.8893 161.359 35.4973L161.357 35.5014C161.132 36.0803 160.688 36.5475 160.121 36.8024L160.12 36.8027L160.125 36.8029ZM164.358 33.5617L164.422 33.5317C164.935 33.3041 165.502 33.3602 165.947 33.6324L165.952 33.6358C166.445 33.9341 166.835 34.3771 167.067 34.9046L167.093 34.9653L167.092 34.9625C167.342 35.5644 167.463 36.2122 167.447 36.8639C167.431 37.5156 167.278 38.1566 166.998 38.7454L166.994 38.7528C166.74 39.3269 166.285 39.788 165.714 40.049L165.712 40.0496C165.464 40.1735 165.188 40.2324 164.911 40.221C164.633 40.2096 164.364 40.1283 164.126 39.9845L164.12 39.9812C163.609 39.6738 163.21 39.2098 162.983 38.658L162.984 38.6608C162.732 38.057 162.61 37.4071 162.625 36.7531C162.64 36.099 162.792 35.4555 163.071 34.8639L163.075 34.8565C163.329 34.2838 163.784 33.8237 164.353 33.5629L164.355 33.5623L164.358 33.5617Z" fill="white"/>
</g>
<circle cx="195.201" cy="35.7013" r="26.5" transform="rotate(17.3649 195.201 35.7013)" fill="url(#paint2_linear_27_214)"/>
<g clip-path="url(#clip2_27_214)">
<path d="M196.34 29.4888L196.331 29.5168C196.16 30.0646 195.896 30.5788 195.55 31.0368L195.571 31.0068C195.235 31.4532 194.79 31.8062 194.279 32.0325L194.274 32.0341C193.787 32.2575 193.216 32.308 192.661 32.1346L192.618 32.121L192.62 32.1216C191.889 31.8885 191.28 31.3778 190.923 30.6994C190.519 30.0021 190.279 29.2221 190.221 28.4183L190.22 28.3803C190.158 27.6186 190.24 26.8521 190.462 26.1206L190.471 26.089C190.648 25.5253 190.915 25.0151 191.252 24.569L191.231 24.5991C191.567 24.1527 192.012 23.7996 192.523 23.5733L192.528 23.5718C193.051 23.3321 193.646 23.3017 194.191 23.4868L194.188 23.486C194.919 23.718 195.529 24.2291 195.885 24.9082C196.283 25.6036 196.521 26.3796 196.579 27.1789L196.58 27.2169C196.643 27.9308 196.568 28.7135 196.336 29.4847L196.335 29.4874L196.34 29.4888ZM189.38 34.7971L189.357 34.8733C189.145 35.5529 188.728 36.1501 188.163 36.5824L188.173 36.5738C187.914 36.7753 187.61 36.9112 187.287 36.9697C186.964 37.0282 186.632 37.0077 186.318 36.9099L186.229 36.8801L186.234 36.8815C185.496 36.6418 184.872 36.1397 184.48 35.4703L184.481 35.4738C184.055 34.7923 183.776 34.0288 183.663 33.2327C183.551 32.4366 183.607 31.6257 183.827 30.8526L183.83 30.8453L183.852 30.771C184.074 30.0619 184.501 29.4738 185.049 29.0529L185.038 29.0614C185.309 28.8478 185.63 28.7069 185.97 28.652C186.311 28.5971 186.66 28.6301 186.984 28.7479L186.98 28.7465C187.718 28.9862 188.342 29.4883 188.734 30.1577L188.732 30.1542C189.159 30.8389 189.437 31.6055 189.549 32.4045C189.661 33.2035 189.603 34.0171 189.381 34.7926L189.379 34.7989L189.38 34.7971ZM195.064 36.1562C196.36 36.6406 197.472 37.5192 198.243 38.6685L198.233 38.6546C199.214 39.9437 199.95 41.4012 200.406 42.9553L200.42 43.0104C200.869 44.291 200.932 45.675 200.602 46.9912L200.598 47.0096L200.575 47.0887C200.461 47.4536 200.263 47.7707 200.011 48.0239L200.02 48.0139C199.781 48.2439 199.475 48.3912 199.147 48.434L199.136 48.4348C198.834 48.4781 198.497 48.4808 198.16 48.4359L198.138 48.4319C197.788 48.3802 197.443 48.3008 197.105 48.1943L197.038 48.1731L197.041 48.1743C196.13 47.8216 195.286 47.3142 194.547 46.6745L194.593 46.7116C193.896 46.1069 193.102 45.6236 192.244 45.2819L192.217 45.2713C191.197 45.0338 190.204 44.9691 189.236 45.0522L189.303 45.0494C188.296 45.129 187.282 45.0445 186.302 44.7992L186.277 44.7922C184.55 44.2537 183.902 43.2977 184.332 41.9241C184.672 40.9738 185.242 40.1226 185.991 39.4463L185.967 39.4686C186.806 38.64 187.757 37.9319 188.791 37.3648L188.786 37.3673C189.798 36.8091 190.884 36.3978 192.012 36.1459L192.077 36.1336C193.053 35.8795 194.077 35.8852 195.05 36.1499L195.061 36.1533L195.064 36.1562ZM199.369 34.2331L199.327 34.2201C198.795 34.0541 198.342 33.6964 198.058 33.2162L198.059 33.2185C197.769 32.7476 197.604 32.2107 197.579 31.6584L197.579 31.6344C197.557 31.0732 197.633 30.5125 197.802 29.977L197.812 29.9472L197.811 29.949C198.061 29.1792 198.445 28.494 198.93 27.9081L198.903 27.9434C199.409 27.3075 200.053 26.7948 200.786 26.4438L200.791 26.4423C201.47 26.0881 202.262 26.0157 202.995 26.2409L203.037 26.2542C203.592 26.4277 204.032 26.7954 204.307 27.2581L204.306 27.2558C204.593 27.7254 204.761 28.2599 204.786 28.8159L204.786 28.8399C204.811 29.3653 204.74 29.9411 204.563 30.5084L204.557 30.5264L204.557 30.5255C204.317 31.2678 203.938 31.9578 203.44 32.5592L203.467 32.5239C202.96 33.1637 202.312 33.678 201.573 34.027L201.569 34.0294C200.889 34.3821 200.098 34.4537 199.365 34.2289L199.364 34.2287L199.369 34.2331ZM205.925 34.6728L206.009 34.697C206.669 34.9034 207.148 35.4162 207.339 36.0302L207.341 36.0379C207.556 36.7153 207.556 37.4421 207.342 38.1195L207.317 38.1969L207.318 38.1933C207.06 38.9545 206.646 39.6529 206.101 40.2434C205.556 40.8339 204.893 41.3032 204.155 41.6209L204.146 41.6249C203.443 41.9501 202.646 42.0067 201.905 41.7841L201.904 41.7836C201.573 41.6962 201.269 41.5266 201.022 41.2905C200.774 41.0545 200.59 40.7596 200.487 40.4333L200.485 40.4256C200.261 39.7249 200.269 38.9707 200.507 38.2747L200.506 38.2784C200.764 37.5144 201.179 36.813 201.725 36.2195C202.271 35.626 202.935 35.1536 203.675 34.8328L203.684 34.8287C204.385 34.5049 205.18 34.4485 205.92 34.6702L205.922 34.6707L205.925 34.6728Z" fill="white"/>
</g>
</g>
<path d="M226.68 52.74C225.84 51.94 225.42 50.98 225.42 49.86C225.38 45.9 225.36 42.78 225.36 40.5C225.28 40.02 225.28 39.56 225.36 39.12C225.32 34.68 225.3 30.66 225.3 27.06C225.3 25.5 225.7 24.32 226.5 23.52C227.34 22.68 228.34 22.26 229.5 22.26C230.34 22.26 231.1 22.5 231.78 22.98C232.5 23.42 233.02 24.22 233.34 25.38C234.94 24.5 237.34 23.5 240.54 22.38C241.58 22.02 242.58 22.08 243.54 22.56C244.54 23 245.22 23.74 245.58 24.78C245.94 25.82 245.88 26.84 245.4 27.84C244.96 28.8 244.22 29.46 243.18 29.82C239.5 31.1 236.36 32.36 233.76 33.6C233.6 34.88 233.58 36.7 233.7 39.06C233.74 41.58 233.78 45.14 233.82 49.74C233.82 50.9 233.4 51.9 232.56 52.74C231.76 53.58 230.78 54 229.62 54C228.5 54 227.52 53.58 226.68 52.74ZM266.94 53.76C265.1 54.4 263.3 54.64 261.54 54.48C259.78 54.32 258.08 53.92 256.44 53.28C253.88 52.24 251.7 50.54 249.9 48.18C248.1 45.82 247.08 43.22 246.84 40.38C246.68 38.02 247.06 35.62 247.98 33.18C248.94 30.7 250.28 28.58 252 26.82C253.24 25.54 254.62 24.52 256.14 23.76C257.7 22.96 259.46 22.46 261.42 22.26C263.38 22.06 265.36 22.4 267.36 23.28C268.44 23.72 269.58 24.44 270.78 25.44C270.86 25.52 271.12 25.76 271.56 26.16L272.64 27.06C273.56 27.78 274.08 28.7 274.2 29.82C274.36 30.9 274.08 31.9 273.36 32.82C272.64 33.7 271.7 34.22 270.54 34.38C269.42 34.5 268.4 34.2 267.48 33.48C267.4 33.44 266.64 32.8 265.2 31.56C264.72 31.16 264.36 30.9 264.12 30.78C261.96 29.9 259.96 30.44 258.12 32.4C257.16 33.4 256.4 34.58 255.84 35.94C255.32 37.3 255.12 38.58 255.24 39.78C255.32 40.9 255.76 42.06 256.56 43.26C257.36 44.42 258.42 45.26 259.74 45.78C261.14 46.3 262.32 46.5 263.28 46.38C264.28 46.22 265.08 45.84 265.68 45.24C265.88 45.04 266.12 44.62 266.4 43.98C267.24 42.14 267.68 41.18 267.72 41.1C268.24 40.1 269.04 39.44 270.12 39.12C271.24 38.76 272.32 38.84 273.36 39.36C274.4 39.84 275.08 40.62 275.4 41.7C275.76 42.78 275.68 43.82 275.16 44.82C275.04 45.06 274.92 45.32 274.8 45.6C274.68 45.84 274.56 46.12 274.44 46.44C274.32 46.76 274.2 47.02 274.08 47.22C273.44 48.74 272.68 49.94 271.8 50.82C270.44 52.22 268.82 53.2 266.94 53.76ZM285.293 54.24C284.173 54.24 283.193 53.88 282.353 53.16C281.513 52.44 281.093 51.42 281.093 50.1C281.093 46.38 281.013 40.68 280.853 33C280.693 25.32 280.613 19.14 280.613 14.46C280.613 13.14 281.033 12.12 281.873 11.4C282.713 10.68 283.693 10.32 284.812 10.32C285.933 10.32 286.913 10.68 287.753 11.4C288.593 12.12 289.013 13.14 289.013 14.46C289.013 19.18 289.033 22.56 289.073 24.6C289.873 24 290.713 23.48 291.593 23.04C292.873 22.4 294.333 22.08 295.973 22.08C298.293 22.08 300.393 22.68 302.273 23.88C304.193 25.08 305.493 26.66 306.173 28.62C306.653 30.06 306.933 31.92 307.013 34.2C307.053 34.88 307.073 36.14 307.073 37.98V40.32L306.713 50.34C306.673 51.54 306.273 52.46 305.513 53.1C304.753 53.74 303.853 54.06 302.813 54.06C301.693 54.06 300.733 53.7 299.933 52.98C299.133 52.26 298.753 51.26 298.793 49.98L299.153 40.2L299.213 36.96L299.153 34.5C299.073 33.1 298.973 32.24 298.853 31.92C298.453 30.72 297.413 30.12 295.733 30.12C294.493 30.12 293.293 30.38 292.133 30.9C290.893 31.5 289.933 32.18 289.253 32.94C289.413 40.66 289.493 46.38 289.493 50.1C289.493 51.42 289.073 52.44 288.233 53.16C287.393 53.88 286.413 54.24 285.293 54.24ZM325.006 54.06C323.566 54.06 322.006 53.78 320.326 53.22C318.246 52.42 316.506 51.24 315.106 49.68C313.746 48.08 312.906 46.34 312.586 44.46C312.346 43.22 312.226 42.02 312.226 40.86C312.226 38.18 312.746 35.66 313.786 33.3C315.226 29.98 317.246 27.3 319.846 25.26C322.446 23.22 325.406 22.2 328.726 22.2C329.926 22.2 331.226 22.36 332.626 22.68C333.546 22.92 334.446 23.34 335.326 23.94H335.626L336.226 23.88C337.226 23.88 338.106 24.24 338.866 24.96C339.666 25.68 340.126 26.56 340.246 27.6L340.666 31.74C340.746 33.5 340.846 36.5 340.966 40.74L341.086 43.98C341.166 45.98 341.206 47.3 341.206 47.94C341.246 48.54 341.226 49.12 341.146 49.68C340.986 50.84 340.546 51.84 339.826 52.68C339.146 53.48 338.246 53.9 337.126 53.94C336.206 53.98 335.366 53.76 334.606 53.28C333.886 52.76 333.366 51.84 333.046 50.52C332.126 51.64 331.006 52.46 329.686 52.98C328.126 53.62 326.566 53.98 325.006 54.06ZM325.066 45.6C326.266 45.6 327.506 45.22 328.786 44.46C329.106 44.26 329.466 43.96 329.866 43.56L330.766 42.72L331.786 41.28C332.026 41 332.306 40.8 332.626 40.68C332.626 37.32 332.526 34.48 332.326 32.16L331.726 31.74L330.886 31.08L330.346 30.72C329.706 30.56 329.206 30.48 328.846 30.48C327.406 30.48 326.006 31.04 324.646 32.16C323.326 33.28 322.266 34.84 321.466 36.84C320.826 38.4 320.506 39.8 320.506 41.04C320.506 42.12 320.746 43.02 321.226 43.74C321.746 44.46 322.466 44.98 323.386 45.3C323.986 45.5 324.546 45.6 325.066 45.6ZM359.1 54.12C358.3 54.12 357.52 53.86 356.76 53.34C356.32 53.18 355.9 52.98 355.5 52.74L353.94 51.84C352.34 50.92 351.14 50.06 350.34 49.26C349.66 48.38 349.24 47.52 349.08 46.68C348.92 45.8 348.82 44.52 348.78 42.84V41.64C348.74 40.48 348.72 37.78 348.72 33.54C348.72 31.82 348.74 30.52 348.78 29.64H347.64C346.64 29.64 345.76 29.3 345 28.62C344.28 27.9 343.92 27 343.92 25.92C343.92 24.8 344.3 23.88 345.06 23.16C345.82 22.4 346.7 22.02 347.7 22.02H348.78L348.84 19.44V17.58C348.88 16.3 349.3 15.32 350.1 14.64C350.94 13.92 351.9 13.56 352.98 13.56C354.1 13.56 355.08 13.94 355.92 14.7C356.8 15.46 357.24 16.5 357.24 17.82L357.12 21.9H359.34C360.78 21.9 361.86 22.28 362.58 23.04C363.3 23.8 363.66 24.76 363.66 25.92C363.66 27.04 363.28 28 362.52 28.8C361.76 29.56 360.64 29.94 359.16 29.94H356.94C356.94 31.58 356.92 32.8 356.88 33.6C356.84 34.44 356.82 35.64 356.82 37.2C356.82 39.76 356.9 41.98 357.06 43.86C357.22 44.02 357.32 44.1 357.36 44.1L357.96 44.52L358.44 44.76L358.98 45.06L359.46 45.3C360.18 45.62 360.8 45.98 361.32 46.38C362.56 47.22 363.18 48.34 363.18 49.74C363.18 50.86 362.78 51.88 361.98 52.8C361.18 53.68 360.22 54.12 359.1 54.12Z" fill="url(#paint3_linear_27_214)"/>
<rect y="4" width="64" height="64" rx="20" fill="white"/>
<g clip-path="url(#clip3_27_214)">
<circle cx="18.8222" cy="38.8574" r="12.9" transform="rotate(-23.9171 18.8222 38.8574)" fill="url(#paint4_linear_27_214)"/>
<g clip-path="url(#clip4_27_214)">
<path d="M17.2434 36.2194L17.2491 36.2324C17.3626 36.4877 17.4311 36.7606 17.4517 37.0392L17.4499 37.0214C17.4701 37.2927 17.4208 37.5648 17.3065 37.8117L17.3053 37.8137C17.1988 38.052 17.0061 38.2539 16.7475 38.3686L16.7273 38.3775L16.7282 38.3772C16.3861 38.5265 15.9991 38.5354 15.6506 38.402C15.2788 38.2767 14.9405 38.0684 14.6613 37.7929L14.6487 37.7794C14.3816 37.5205 14.1654 37.2137 14.0113 36.8751L14.0048 36.8604C13.8882 36.5976 13.8222 36.325 13.8022 36.0536L13.804 36.0715C13.7838 35.8001 13.8331 35.5281 13.9474 35.2811L13.9486 35.2791C14.0629 35.0235 14.2708 34.8213 14.5295 34.714L14.5283 34.7146C14.8702 34.5647 15.2574 34.5558 15.6059 34.6897C15.9749 34.8162 16.3109 35.0239 16.589 35.2975L16.6016 35.3111C16.8541 35.5519 17.078 35.8623 17.2407 36.2191L17.2413 36.2203L17.2434 36.2194ZM16.4021 40.3966L16.4182 40.4318C16.5592 40.7483 16.5984 41.1007 16.5304 41.4404L16.5315 41.4339C16.5014 41.5908 16.4338 41.7382 16.3344 41.8634C16.235 41.9886 16.1068 42.0878 15.9608 42.1527L15.9187 42.1703L15.9208 42.1694C15.5739 42.3187 15.1843 42.3355 14.8259 42.2165L14.8277 42.2172C14.4527 42.105 14.1055 41.9152 13.8086 41.6602C13.5117 41.4052 13.2717 41.0906 13.1042 40.7368L13.1027 40.7335L13.087 40.6991C12.9403 40.3685 12.908 40.016 12.9729 39.6863L12.9718 39.6928C13.0023 39.5277 13.0744 39.373 13.1814 39.2435C13.2884 39.1141 13.4267 39.0141 13.5831 38.953L13.581 38.9539C13.9279 38.8046 14.3175 38.7879 14.6759 38.9068L14.6741 38.9061C15.0501 39.0195 15.3981 39.2106 15.6956 39.467C15.9931 39.7234 16.2335 40.0394 16.4012 40.3945L16.4025 40.3974L16.4021 40.3966ZM18.918 39.0681C19.5478 38.829 20.2367 38.7933 20.8878 38.9662L20.8798 38.9641C21.6524 39.1208 22.3899 39.4176 23.0558 39.8397L23.0788 39.8552C23.6541 40.1796 24.1217 40.6656 24.4239 41.2529L24.428 41.2612L24.4451 41.2974C24.5206 41.4676 24.5503 41.6469 24.5391 41.8207L24.5392 41.8141C24.5259 41.9749 24.4612 42.127 24.3548 42.2482L24.3513 42.2518C24.2547 42.3647 24.1323 42.4739 23.9946 42.5657L23.985 42.5714C23.8405 42.6649 23.6887 42.7467 23.5311 42.8161L23.4995 42.8301L23.5012 42.8294C23.0545 42.9931 22.5829 43.0785 22.1072 43.0817L22.1359 43.0806C21.6865 43.0834 21.2408 43.1616 20.8173 43.3121L20.8039 43.317C20.3547 43.5576 19.9706 43.8529 19.6431 44.1942L19.6669 44.1715C19.324 44.5241 18.9261 44.8187 18.4888 45.0438L18.4772 45.0494C17.6728 45.4069 17.1285 45.2654 16.8445 44.6249C16.6637 44.1681 16.5989 43.6736 16.6557 43.1856L16.6542 43.2014C16.6951 42.6287 16.8153 42.0645 17.0114 41.525L17.0105 41.5274C17.2014 40.9982 17.4666 40.4989 17.7983 40.0445L17.8182 40.0191C18.0934 39.6129 18.4701 39.2858 18.9109 39.0703L18.916 39.068L18.918 39.0681ZM19.8752 36.982L19.8558 36.9905C19.6076 37.101 19.3272 37.1154 19.0689 37.0311L19.0702 37.0316C18.8129 36.9523 18.5801 36.8089 18.3935 36.615L18.3857 36.6064C18.1976 36.4079 18.0453 36.1785 17.9352 35.9282L17.929 35.9143L17.9294 35.9151C17.7735 35.5534 17.6939 35.1794 17.6834 34.8091L17.6848 34.8307C17.6657 34.4355 17.7366 34.0412 17.892 33.6774L17.8932 33.6753C18.028 33.3275 18.2944 33.0468 18.6347 32.8939L18.6545 32.8851C18.9131 32.7704 19.1923 32.7635 19.4414 32.8446L19.4402 32.8441C19.6962 32.9236 19.9293 33.0651 20.1168 33.2607L20.1247 33.2693C20.3026 33.4535 20.4616 33.6869 20.5789 33.9514L20.5826 33.9598L20.5824 33.9594C20.7328 34.3082 20.8157 34.6823 20.827 35.062L20.8255 35.0405C20.8453 35.4375 20.7734 35.8338 20.6154 36.1986L20.6145 36.201C20.479 36.5484 20.2126 36.8287 19.8725 36.9816L19.8721 36.9818L19.8752 36.982ZM22.4147 35.0372L22.453 35.0192C22.7609 34.8827 23.1009 34.9163 23.3679 35.0797L23.3713 35.0817C23.6672 35.2606 23.9007 35.5265 24.0401 35.843L24.0557 35.8794L24.0549 35.8777C24.2052 36.2388 24.2778 36.6275 24.2681 37.0185C24.2584 37.4096 24.1666 37.7942 23.9987 38.1474L23.9966 38.1519C23.8442 38.4963 23.5708 38.773 23.2282 38.9296L23.2274 38.93C23.0783 39.0043 22.9129 39.0396 22.7465 39.0328C22.5801 39.026 22.4181 38.9772 22.2756 38.8909L22.2722 38.8889C21.9653 38.7045 21.7259 38.4261 21.5895 38.095L21.5903 38.0967C21.4392 37.7344 21.3659 37.3444 21.3749 36.952C21.384 36.5596 21.4752 36.1735 21.6428 35.8185L21.6449 35.8141C21.7973 35.4705 22.0702 35.1944 22.412 35.0379L22.4128 35.0376L22.4147 35.0372Z" fill="white"/>
</g>
<circle cx="40.9207" cy="36.3208" r="15.9" transform="rotate(17.3649 40.9207 36.3208)" fill="url(#paint5_linear_27_214)"/>
<g clip-path="url(#clip5_27_214)">
<path d="M41.6038 32.5934L41.5985 32.6102C41.496 32.9389 41.3375 33.2474 41.1301 33.5222L41.1428 33.5042C40.941 33.772 40.674 33.9839 40.3673 34.1196L40.3646 34.1206C40.0722 34.2546 39.7296 34.2849 39.3968 34.1809L39.3708 34.1727L39.3719 34.1731C38.9336 34.0333 38.5679 33.7268 38.3536 33.3198C38.1112 32.9014 37.9672 32.4334 37.9325 31.9511L37.9319 31.9283C37.895 31.4713 37.9442 31.0114 38.0769 30.5725L38.0828 30.5535C38.1885 30.2153 38.3491 29.9092 38.5512 29.6416L38.5384 29.6596C38.7403 29.3917 39.0073 29.1799 39.314 29.0441L39.3167 29.0432C39.6305 28.8994 39.9874 28.8812 40.3143 28.9922L40.3127 28.9917C40.7512 29.1309 41.1172 29.4376 41.331 29.845C41.57 30.2623 41.7123 30.7279 41.7474 31.2075L41.748 31.2303C41.786 31.6586 41.7409 32.1282 41.6016 32.591L41.601 32.5926L41.6038 32.5934ZM37.4277 35.7784L37.414 35.8241C37.2872 36.2319 37.0369 36.5902 36.6976 36.8495L36.704 36.8444C36.5485 36.9653 36.366 37.0468 36.1722 37.0819C35.9783 37.1171 35.7789 37.1047 35.5908 37.046L35.5375 37.0282L35.5402 37.029C35.0975 36.8852 34.723 36.5839 34.4877 36.1823L34.4888 36.1844C34.2328 35.7755 34.0656 35.3174 33.9979 34.8398C33.9303 34.3621 33.9639 33.8755 34.0963 33.4117L34.0977 33.4073L34.1111 33.3627C34.2441 32.9373 34.5008 32.5844 34.8291 32.3319L34.8227 32.337C34.9853 32.2088 35.1778 32.1243 35.3822 32.0913C35.5866 32.0584 35.796 32.0782 35.9906 32.1489L35.9879 32.148C36.4306 32.2918 36.8051 32.5931 37.0403 32.9948L37.0392 32.9926C37.2952 33.4035 37.4622 33.8635 37.5292 34.3429C37.5963 34.8223 37.562 35.3104 37.4285 35.7757L37.4273 35.7795L37.4277 35.7784ZM40.8383 36.5939C41.6161 36.8845 42.2831 37.4117 42.7456 38.1012L42.7399 38.0929C43.3281 38.8663 43.7699 39.7409 44.0434 40.6733L44.0521 40.7064C44.3211 41.4748 44.3591 42.3051 44.1613 43.0949L44.1585 43.1059L44.1448 43.1534C44.0763 43.3723 43.958 43.5626 43.8063 43.7145L43.8118 43.7085C43.6687 43.8465 43.4851 43.9349 43.2879 43.9605L43.2818 43.961C43.1005 43.987 42.8983 43.9886 42.6961 43.9617L42.6826 43.9593C42.4727 43.9283 42.2656 43.8806 42.0632 43.8167L42.0226 43.804L42.0247 43.8047C41.4779 43.5931 40.9716 43.2887 40.5283 42.9048L40.5559 42.9271C40.1374 42.5643 39.6609 42.2743 39.1463 42.0692L39.1299 42.0629C38.5182 41.9204 37.9222 41.8816 37.3414 41.9314L37.3818 41.9298C36.7775 41.9775 36.1694 41.9268 35.5813 41.7797L35.566 41.7755C34.5302 41.4524 34.1412 40.8787 34.3989 40.0546C34.603 39.4844 34.9451 38.9737 35.3946 38.5679L35.3803 38.5813C35.8838 38.0841 36.454 37.6593 37.0744 37.319L37.0716 37.3205C37.6787 36.9856 38.3304 36.7388 39.0071 36.5877L39.0463 36.5803C39.6315 36.4279 40.2464 36.4312 40.83 36.5901L40.8365 36.5921L40.8383 36.5939ZM43.4213 35.44L43.3964 35.4322C43.0767 35.3326 42.8053 35.118 42.6346 34.8298L42.6353 34.8313C42.4616 34.5487 42.3625 34.2265 42.3474 33.8951L42.3471 33.8808C42.3344 33.544 42.3798 33.2076 42.4814 32.8863L42.487 32.8684L42.4866 32.8695C42.6364 32.4077 42.8667 31.9966 43.1581 31.645L43.142 31.6662C43.4456 31.2846 43.8319 30.977 44.2718 30.7664L44.2744 30.7655C44.6822 30.553 45.1573 30.5096 45.5968 30.6447L45.6222 30.6527C45.955 30.7567 46.2192 30.9774 46.3841 31.255L46.3833 31.2536C46.5558 31.5354 46.6566 31.8561 46.6713 32.1897L46.6715 32.2041C46.6866 32.5193 46.644 32.8648 46.5376 33.2052L46.5342 33.216L46.5344 33.2155C46.3899 33.6608 46.1626 34.0748 45.8642 34.4356L45.8804 34.4145C45.5758 34.7983 45.187 35.1069 44.744 35.3163L44.7411 35.3178C44.3332 35.5294 43.8585 35.5724 43.4191 35.4375L43.4186 35.4373L43.4213 35.44ZM47.3549 35.7038L47.4051 35.7183C47.8013 35.8422 48.0889 36.1499 48.2033 36.5183L48.2048 36.5229C48.3334 36.9293 48.3335 37.3654 48.2052 37.7719L48.1901 37.8183L48.1907 37.8161C48.0362 38.2728 47.7874 38.6919 47.4604 39.0462C47.1335 39.4005 46.7357 39.6821 46.2928 39.8727L46.2873 39.8751C45.866 40.0702 45.3878 40.1042 44.9432 39.9706L44.9421 39.9703C44.7436 39.9179 44.5616 39.8161 44.413 39.6745C44.2645 39.5328 44.1541 39.3559 44.0923 39.1601L44.0908 39.1555C43.9565 38.7351 43.9611 38.2826 44.1041 37.865L44.1034 37.8672C44.2581 37.4088 44.5073 36.9879 44.8348 36.6318C45.1623 36.2757 45.5608 35.9923 46.0047 35.7998L46.0102 35.7973C46.4308 35.6031 46.908 35.5692 47.3518 35.7022L47.3529 35.7026L47.3549 35.7038Z" fill="white"/>
</g>
</g>
<defs>
<linearGradient id="paint0_linear_27_214" x1="85" y1="-5.5" x2="143.89" y2="54.4169" gradientUnits="userSpaceOnUse">
<stop stop-color="#A780C5"/>
<stop offset="1" stop-color="#EEBAD6"/>
</linearGradient>
<linearGradient id="paint1_linear_27_214" x1="166.036" y1="-9.10227" x2="155.133" y2="69.748" gradientUnits="userSpaceOnUse">
<stop stop-color="#A780C5"/>
<stop offset="1" stop-color="#EEBAD6"/>
</linearGradient>
<linearGradient id="paint2_linear_27_214" x1="156.704" y1="0.380058" x2="198.95" y2="58.4163" gradientUnits="userSpaceOnUse">
<stop stop-color="#A780C5"/>
<stop offset="1" stop-color="#EEBAD6"/>
</linearGradient>
<linearGradient id="paint3_linear_27_214" x1="244.5" y1="-15" x2="251.672" y2="66.2932" gradientUnits="userSpaceOnUse">
<stop stop-color="#A780C5"/>
<stop offset="1" stop-color="#EEBAD6"/>
</linearGradient>
<linearGradient id="paint4_linear_27_214" x1="23.4218" y1="9.43867" x2="16.8798" y2="56.7488" gradientUnits="userSpaceOnUse">
<stop stop-color="#A780C5"/>
<stop offset="1" stop-color="#EEBAD6"/>
</linearGradient>
<linearGradient id="paint5_linear_27_214" x1="17.8221" y1="15.1281" x2="43.1702" y2="49.9498" gradientUnits="userSpaceOnUse">
<stop stop-color="#A780C5"/>
<stop offset="1" stop-color="#EEBAD6"/>
</linearGradient>
<clipPath id="clip0_27_214">
<rect width="85" height="55" fill="white" transform="translate(137 8.5)"/>
</clipPath>
<clipPath id="clip1_27_214">
<rect width="19.9643" height="18.4286" fill="white" transform="translate(145.51 35.5529) rotate(-23.9171)"/>
</clipPath>
<clipPath id="clip2_27_214">
<rect width="24.6071" height="22.7143" fill="white" transform="translate(186.848 21.1897) rotate(17.3649)"/>
</clipPath>
<clipPath id="clip3_27_214">
<rect width="51" height="33" fill="white" transform="translate(6 20)"/>
</clipPath>
<clipPath id="clip4_27_214">
<rect width="11.9786" height="11.0571" fill="white" transform="translate(11.1057 36.2318) rotate(-23.9171)"/>
</clipPath>
<clipPath id="clip5_27_214">
<rect width="14.7643" height="13.6286" fill="white" transform="translate(35.9088 27.6138) rotate(17.3649)"/>
</clipPath>
</defs>
</svg>
