<svg width="34" height="22" viewBox="0 0 34 22" fill="none" xmlns="http://www.w3.org/2000/svg">
<path d="M2.33333 22C1.32081 22 0.5 21.1792 0.5 20.1667V20.1667C0.5 19.1541 1.32081 18.3333 2.33333 18.3333H31.6667C32.6792 18.3333 33.5 19.1541 33.5 20.1667V20.1667C33.5 21.1792 32.6792 22 31.6667 22H2.33333ZM2.33333 12.8333C1.32081 12.8333 0.5 12.0125 0.5 11V11C0.5 9.98748 1.32081 9.16667 2.33333 9.16667H31.6667C32.6792 9.16667 33.5 9.98748 33.5 11V11C33.5 12.0125 32.6792 12.8333 31.6667 12.8333H2.33333ZM2.33333 3.66667C1.32081 3.66667 0.5 2.84586 0.5 1.83333V1.83333C0.5 0.820812 1.32081 0 2.33333 0H31.6667C32.6792 0 33.5 0.820812 33.5 1.83333V1.83333C33.5 2.84586 32.6792 3.66667 31.6667 3.66667H2.33333Z" fill="white"/>
</svg>
