<svg width="36" height="30" viewBox="0 0 36 30" fill="none" xmlns="http://www.w3.org/2000/svg">
<path d="M2.9316e-06 28.3374V3.22474C2.9316e-06 2.33794 0.352803 1.57851 1.0584 0.946464C1.764 0.314415 2.6112 -0.00107218 3.6 2.73747e-06H32.4C33.39 2.73747e-06 34.2378 0.316028 34.9434 0.948077C35.649 1.58013 36.0012 2.33902 36 3.22474V22.5732C36 23.46 35.6472 24.2194 34.9416 24.8515C34.236 25.4835 33.3888 25.799 32.4 25.7979H8.34717C7.60847 25.7979 6.89575 26.0705 6.34552 26.5633L3.06 29.5064C2.49 30.017 1.8372 30.1315 1.1016 29.8498C0.366003 29.5682 -0.00119707 29.0641 2.9316e-06 28.3374ZM3.6 24.4677L4.86052 23.3386C5.41075 22.8457 6.12348 22.5732 6.86217 22.5732H31.4C31.9523 22.5732 32.4 22.1255 32.4 21.5732V4.22474C32.4 3.67246 31.9523 3.22474 31.4 3.22474H4.6C4.04772 3.22474 3.6 3.67246 3.6 4.22474V24.4677Z" fill="#A780C5"/>
</svg>
