<svg width="38" height="38" viewBox="0 0 38 38" fill="none" xmlns="http://www.w3.org/2000/svg">
<path d="M13.9583 37.3333L13.225 31.4667C12.8278 31.3139 12.4532 31.1305 12.1012 30.9167C11.7492 30.7028 11.4057 30.4736 11.0708 30.2292L5.61668 32.5208L0.575012 23.8125L5.29585 20.2375C5.26529 20.0236 5.25001 19.817 5.25001 19.6178V18.3822C5.25001 18.1829 5.26529 17.9764 5.29585 17.7625L0.575012 14.1875L5.61668 5.47916L11.0708 7.77082C11.407 7.52638 11.7583 7.29721 12.125 7.08332C12.4917 6.86943 12.8583 6.6861 13.225 6.53332L13.9583 0.666656H24.0417L24.775 6.53332C25.1722 6.6861 25.5468 6.86943 25.8988 7.08332C26.2508 7.29721 26.5943 7.52638 26.9292 7.77082L32.3833 5.47916L37.425 14.1875L32.7042 17.7625C32.7347 17.9764 32.75 18.1829 32.75 18.3822V19.6178C32.75 19.817 32.7195 20.0236 32.6583 20.2375L37.3792 23.8125L32.3375 32.5208L26.9292 30.2292C26.5931 30.4736 26.2417 30.7028 25.875 30.9167C25.5083 31.1305 25.1417 31.3139 24.775 31.4667L24.0417 37.3333H13.9583ZM19.0917 25.4167C20.8639 25.4167 22.3764 24.7903 23.6292 23.5375C24.882 22.2847 25.5083 20.7722 25.5083 19C25.5083 17.2278 24.882 15.7153 23.6292 14.4625C22.3764 13.2097 20.8639 12.5833 19.0917 12.5833C17.2889 12.5833 15.7685 13.2097 14.5303 14.4625C13.2922 15.7153 12.6738 17.2278 12.675 19C12.675 20.7722 13.2935 22.2847 14.5303 23.5375C15.7672 24.7903 17.2877 25.4167 19.0917 25.4167ZM19.0917 21.75C18.3278 21.75 17.6782 21.4823 17.1428 20.947C16.6075 20.4117 16.3405 19.7627 16.3417 19C16.3417 18.2361 16.6093 17.5865 17.1447 17.0512C17.68 16.5158 18.329 16.2488 19.0917 16.25C19.8556 16.25 20.5052 16.5177 21.0405 17.053C21.5758 17.5883 21.8429 18.2373 21.8417 19C21.8417 19.7639 21.574 20.4135 21.0387 20.9488C20.5033 21.4842 19.8543 21.7512 19.0917 21.75ZM17.1667 33.6667H20.7875L21.4292 28.8083C22.3764 28.5639 23.2552 28.2045 24.0655 27.7303C24.8758 27.2561 25.6165 26.6835 26.2875 26.0125L30.825 27.8917L32.6125 24.775L28.6708 21.7958C28.8236 21.368 28.9306 20.9177 28.9917 20.4447C29.0528 19.9717 29.0833 19.4901 29.0833 19C29.0833 18.5111 29.0528 18.0302 28.9917 17.5572C28.9306 17.0842 28.8236 16.6332 28.6708 16.2042L32.6125 13.225L30.825 10.1083L26.2875 12.0333C25.6153 11.3305 24.8746 10.7427 24.0655 10.2697C23.2564 9.79666 22.3776 9.43732 21.4292 9.19166L20.8333 4.33332H17.2125L16.5708 9.19166C15.6236 9.4361 14.7455 9.79543 13.9363 10.2697C13.1272 10.7439 12.386 11.3165 11.7125 11.9875L7.17501 10.1083L5.38751 13.225L9.32918 16.1583C9.1764 16.6167 9.06946 17.075 9.00835 17.5333C8.94724 17.9917 8.91668 18.4805 8.91668 19C8.91668 19.4889 8.94724 19.9625 9.00835 20.4208C9.06946 20.8792 9.1764 21.3375 9.32918 21.7958L5.38751 24.775L7.17501 27.8917L11.7125 25.9667C12.3847 26.6694 13.126 27.2579 13.9363 27.7322C14.7467 28.2064 15.6248 28.5651 16.5708 28.8083L17.1667 33.6667Z" fill="white"/>
</svg>
